<svg width="11" height="11" viewBox="0 0 11 11" fill="none" xmlns="http://www.w3.org/2000/svg">
<path d="M5.50002 8.70825C5.59067 8.70825 5.67928 8.68137 5.75466 8.63101C5.83003 8.58065 5.88877 8.50906 5.92346 8.42532C5.95816 8.34157 5.96723 8.24941 5.94955 8.1605C5.93186 8.07159 5.88821 7.98993 5.82411 7.92583C5.76001 7.86173 5.67834 7.81808 5.58944 7.80039C5.50053 7.78271 5.40837 7.79178 5.32462 7.82647C5.24087 7.86116 5.16929 7.91991 5.11893 7.99528C5.06857 8.07066 5.04169 8.15927 5.04169 8.24992C5.04169 8.37148 5.08998 8.48806 5.17593 8.57401C5.26188 8.65996 5.37846 8.70825 5.50002 8.70825ZM7.79169 8.70825C7.88234 8.70825 7.97095 8.68137 8.04632 8.63101C8.1217 8.58065 8.18044 8.50906 8.21513 8.42532C8.24982 8.34157 8.2589 8.24941 8.24121 8.1605C8.22353 8.07159 8.17988 7.98993 8.11578 7.92583C8.05168 7.86173 7.97001 7.81808 7.8811 7.80039C7.7922 7.78271 7.70004 7.79178 7.61629 7.82647C7.53254 7.86116 7.46096 7.91991 7.4106 7.99528C7.36023 8.07066 7.33335 8.15927 7.33335 8.24992C7.33335 8.37148 7.38164 8.48806 7.4676 8.57401C7.55355 8.65996 7.67013 8.70825 7.79169 8.70825ZM7.79169 6.87492C7.88234 6.87492 7.97095 6.84804 8.04632 6.79768C8.1217 6.74731 8.18044 6.67573 8.21513 6.59198C8.24982 6.50823 8.2589 6.41608 8.24121 6.32717C8.22353 6.23826 8.17988 6.15659 8.11578 6.0925C8.05168 6.0284 7.97001 5.98474 7.8811 5.96706C7.7922 5.94937 7.70004 5.95845 7.61629 5.99314C7.53254 6.02783 7.46096 6.08658 7.4106 6.16195C7.36023 6.23732 7.33335 6.32594 7.33335 6.41659C7.33335 6.53814 7.38164 6.65472 7.4676 6.74068C7.55355 6.82663 7.67013 6.87492 7.79169 6.87492ZM5.50002 6.87492C5.59067 6.87492 5.67928 6.84804 5.75466 6.79768C5.83003 6.74731 5.88877 6.67573 5.92346 6.59198C5.95816 6.50823 5.96723 6.41608 5.94955 6.32717C5.93186 6.23826 5.88821 6.15659 5.82411 6.0925C5.76001 6.0284 5.67834 5.98474 5.58944 5.96706C5.50053 5.94937 5.40837 5.95845 5.32462 5.99314C5.24087 6.02783 5.16929 6.08658 5.11893 6.16195C5.06857 6.23732 5.04169 6.32594 5.04169 6.41659C5.04169 6.53814 5.08998 6.65472 5.17593 6.74068C5.26188 6.82663 5.37846 6.87492 5.50002 6.87492ZM8.70835 1.37492H8.25002V0.916585C8.25002 0.795028 8.20173 0.678449 8.11578 0.592495C8.02982 0.50654 7.91324 0.458252 7.79169 0.458252C7.67013 0.458252 7.55355 0.50654 7.4676 0.592495C7.38164 0.678449 7.33335 0.795028 7.33335 0.916585V1.37492H3.66669V0.916585C3.66669 0.795028 3.6184 0.678449 3.53244 0.592495C3.44649 0.50654 3.32991 0.458252 3.20835 0.458252C3.0868 0.458252 2.97022 0.50654 2.88426 0.592495C2.79831 0.678449 2.75002 0.795028 2.75002 0.916585V1.37492H2.29169C1.92701 1.37492 1.57728 1.51978 1.31942 1.77765C1.06155 2.03551 0.916687 2.38525 0.916687 2.74992V9.16659C0.916687 9.53126 1.06155 9.881 1.31942 10.1389C1.57728 10.3967 1.92701 10.5416 2.29169 10.5416H8.70835C9.07303 10.5416 9.42276 10.3967 9.68062 10.1389C9.93849 9.881 10.0834 9.53126 10.0834 9.16659V2.74992C10.0834 2.38525 9.93849 2.03551 9.68062 1.77765C9.42276 1.51978 9.07303 1.37492 8.70835 1.37492ZM9.16669 9.16659C9.16669 9.28814 9.1184 9.40472 9.03244 9.49068C8.94649 9.57663 8.82991 9.62492 8.70835 9.62492H2.29169C2.17013 9.62492 2.05355 9.57663 1.9676 9.49068C1.88164 9.40472 1.83335 9.28814 1.83335 9.16659V5.04159H9.16669V9.16659ZM9.16669 4.12492H1.83335V2.74992C1.83335 2.62836 1.88164 2.51178 1.9676 2.42583C2.05355 2.33987 2.17013 2.29159 2.29169 2.29159H2.75002V2.74992C2.75002 2.87148 2.79831 2.98806 2.88426 3.07401C2.97022 3.15996 3.0868 3.20825 3.20835 3.20825C3.32991 3.20825 3.44649 3.15996 3.53244 3.07401C3.6184 2.98806 3.66669 2.87148 3.66669 2.74992V2.29159H7.33335V2.74992C7.33335 2.87148 7.38164 2.98806 7.4676 3.07401C7.55355 3.15996 7.67013 3.20825 7.79169 3.20825C7.91324 3.20825 8.02982 3.15996 8.11578 3.07401C8.20173 2.98806 8.25002 2.87148 8.25002 2.74992V2.29159H8.70835C8.82991 2.29159 8.94649 2.33987 9.03244 2.42583C9.1184 2.51178 9.16669 2.62836 9.16669 2.74992V4.12492ZM3.20835 6.87492C3.299 6.87492 3.38762 6.84804 3.46299 6.79768C3.53836 6.74731 3.59711 6.67573 3.6318 6.59198C3.66649 6.50823 3.67557 6.41608 3.65788 6.32717C3.6402 6.23826 3.59654 6.15659 3.53244 6.0925C3.46834 6.0284 3.38668 5.98474 3.29777 5.96706C3.20886 5.94937 3.11671 5.95845 3.03296 5.99314C2.94921 6.02783 2.87763 6.08658 2.82726 6.16195C2.7769 6.23732 2.75002 6.32594 2.75002 6.41659C2.75002 6.53814 2.79831 6.65472 2.88426 6.74068C2.97022 6.82663 3.0868 6.87492 3.20835 6.87492ZM3.20835 8.70825C3.299 8.70825 3.38762 8.68137 3.46299 8.63101C3.53836 8.58065 3.59711 8.50906 3.6318 8.42532C3.66649 8.34157 3.67557 8.24941 3.65788 8.1605C3.6402 8.07159 3.59654 7.98993 3.53244 7.92583C3.46834 7.86173 3.38668 7.81808 3.29777 7.80039C3.20886 7.78271 3.11671 7.79178 3.03296 7.82647C2.94921 7.86116 2.87763 7.91991 2.82726 7.99528C2.7769 8.07066 2.75002 8.15927 2.75002 8.24992C2.75002 8.37148 2.79831 8.48806 2.88426 8.57401C2.97022 8.65996 3.0868 8.70825 3.20835 8.70825Z" fill="#FFA454"/>
</svg>
